<?xml version="1.0" encoding="UTF-8"?>
<svg xmlns="http://www.w3.org/2000/svg" xmlns:xlink="http://www.w3.org/1999/xlink" width="16pt" height="16pt" viewBox="0 0 16 16" version="1.1">
<g id="surface7629712">
<path style=" stroke:none;fill-rule:nonzero;fill:rgb(20%,20%,20%);fill-opacity:1;" d="M 0.898438 1.300781 L 15.101562 1.300781 L 15.101562 14.699219 L 0.898438 14.699219 Z M 0.898438 1.300781 "/>
<path style=" stroke:none;fill-rule:nonzero;fill:rgb(40%,40%,40%);fill-opacity:1;" d="M 15 1.398438 L 15 14.601562 L 1 14.601562 L 1 1.398438 L 15 1.398438 M 15.199219 1.199219 L 0.800781 1.199219 L 0.800781 14.800781 L 15.199219 14.800781 Z M 15.199219 1.199219 "/>
<path style=" stroke:none;fill-rule:nonzero;fill:rgb(40%,40%,40%);fill-opacity:1;" d="M 0.800781 1.199219 L 15.199219 1.199219 L 15.199219 3.601562 L 0.800781 3.601562 Z M 0.800781 1.199219 "/>
<path style=" stroke:none;fill-rule:nonzero;fill:rgb(100%,100%,100%);fill-opacity:1;" d="M 6.8125 11.429688 L 8.8125 6.03125 L 9.1875 6.167969 L 7.1875 11.570312 Z M 6.8125 11.429688 "/>
<path style=" stroke:none;fill-rule:nonzero;fill:rgb(100%,100%,100%);fill-opacity:1;" d="M 5.578125 10.878906 L 3.199219 8.800781 L 5.578125 6.71875 L 5.839844 7.019531 L 3.800781 8.800781 L 5.839844 10.578125 Z M 10.441406 10.898438 L 10.179688 10.601562 L 12.199219 8.820312 L 10.179688 7.019531 L 10.441406 6.71875 L 12.800781 8.820312 Z M 10.441406 10.898438 "/>
</g>
</svg>
