<svg width="32" height="32" viewBox="0 0 32 32" fill="none" xmlns="http://www.w3.org/2000/svg">
<path d="M0 32V0H32V32H0Z" fill="#FFD600"/>
<path d="M20.9228 23.953C21.5379 24.9521 22.2064 25.9094 23.6224 25.9094C24.8117 25.9094 25.4357 25.3183 25.4357 24.5005C25.4357 23.5218 24.7904 23.1743 23.4819 22.6045L22.7646 22.2987C20.6944 21.4205 19.3175 20.3201 19.3175 17.9956C19.3175 15.8534 20.9575 14.2232 23.5201 14.2232C25.345 14.2232 26.6561 14.8552 27.6019 16.5103L25.3673 17.9387C24.8757 17.0605 24.3441 16.7147 23.5201 16.7147C22.6793 16.7147 22.1468 17.2454 22.1468 17.9387C22.1468 18.7956 22.6801 19.1423 23.9113 19.673L24.6286 19.9787C27.0686 21.0178 28.4446 22.0792 28.4446 24.465C28.4446 27.0356 26.4144 28.4445 23.689 28.4445C21.0233 28.4445 19.5095 27.1067 18.6668 25.4507L20.9228 23.953ZM10.6241 24.0258C11.0739 24.8312 11.7575 25.4507 12.7406 25.4507C13.681 25.4507 14.2224 25.0792 14.2224 23.6347V14.2223H17.185V24.0898C17.185 27.0827 15.449 28.4445 12.9139 28.4445C10.6233 28.4445 8.96992 26.8925 8.29614 25.4507L10.6241 24.0258Z" fill="#000001"/>
</svg>
