<?xml version="1.0" encoding="UTF-8"?>
<svg xmlns="http://www.w3.org/2000/svg" xmlns:xlink="http://www.w3.org/1999/xlink" width="64pt" height="64pt" viewBox="0 0 64 64" version="1.1">
<g id="surface7629925">
<path style=" stroke:none;fill-rule:nonzero;fill:rgb(96.862745%,96.862745%,98.431373%);fill-opacity:1;" d="M 51.050781 11.550781 L 12.949219 11.550781 C 10.5 11.550781 8.5 13.5 8.5 15.949219 L 8.5 48.101562 C 8.5 50.550781 10.5 52.5 12.949219 52.5 L 51.050781 52.5 C 53.5 52.5 55.5 50.550781 55.5 48.101562 L 55.5 15.949219 C 55.5 13.5 53.5 11.550781 51.050781 11.550781 "/>
<path style=" stroke:none;fill-rule:nonzero;fill:rgb(80%,80%,80%);fill-opacity:1;" d="M 51.050781 11.550781 L 12.949219 11.550781 C 10.5 11.550781 8.5 13.5 8.5 15.949219 L 8.5 20.800781 L 55.5 20.800781 L 55.5 15.949219 C 55.5 13.5 53.5 11.550781 51.050781 11.550781 "/>
<path style=" stroke:none;fill-rule:nonzero;fill:rgb(96.862745%,96.862745%,98.431373%);fill-opacity:1;" d="M 28.25 28.949219 C 29.75 28.949219 31.101562 29.601562 32 30.601562 C 32.898438 29.550781 34.25 28.949219 35.75 28.949219 C 38.5 28.949219 40.75 31.148438 40.75 33.851562 C 40.75 35.398438 40.050781 36.75 38.898438 37.648438 L 32 43.050781 L 25.199219 37.75 C 24 36.851562 23.25 35.449219 23.25 33.851562 C 23.25 31.199219 25.5 28.949219 28.25 28.949219 Z M 28.25 28.949219 "/>
<path style=" stroke:none;fill-rule:nonzero;fill:rgb(20%,20%,20%);fill-opacity:1;" d="M 55.5 22.300781 L 8.5 22.300781 C 7.648438 22.300781 7 21.648438 7 20.800781 C 7 19.949219 7.648438 19.300781 8.5 19.300781 L 55.5 19.300781 C 56.351562 19.300781 57 19.949219 57 20.800781 C 57 21.648438 56.351562 22.300781 55.5 22.300781 Z M 55.5 22.300781 "/>
<path style=" stroke:none;fill-rule:nonzero;fill:rgb(20%,20%,20%);fill-opacity:1;" d="M 51.050781 53.949219 L 12.949219 53.949219 C 9.699219 53.949219 7 51.300781 7 48.050781 L 7 15.949219 C 7 12.699219 9.648438 10.050781 12.949219 10.050781 L 51.050781 10.050781 C 54.300781 10.050781 57 12.699219 57 15.949219 L 57 48.101562 C 57 51.300781 54.351562 53.949219 51.050781 53.949219 Z M 12.949219 13.050781 C 11.351562 13.050781 10 14.351562 10 15.949219 L 10 48.101562 C 10 49.699219 11.300781 51 12.949219 51 L 51.050781 51 C 52.648438 51 54 49.699219 54 48.101562 L 54 15.949219 C 54 14.351562 52.699219 13.050781 51.050781 13.050781 C 51.050781 13.050781 12.949219 13.050781 12.949219 13.050781 Z M 12.949219 13.050781 "/>
<path style=" stroke:none;fill-rule:nonzero;fill:rgb(20%,20%,20%);fill-opacity:1;" d="M 12.949219 14.851562 C 12.121094 14.851562 11.449219 15.523438 11.449219 16.351562 C 11.449219 17.179688 12.121094 17.851562 12.949219 17.851562 C 13.777344 17.851562 14.449219 17.179688 14.449219 16.351562 C 14.449219 15.523438 13.777344 14.851562 12.949219 14.851562 Z M 17.398438 14.851562 C 16.570312 14.851562 15.898438 15.523438 15.898438 16.351562 C 15.898438 17.179688 16.570312 17.851562 17.398438 17.851562 C 18.226562 17.851562 18.898438 17.179688 18.898438 16.351562 C 18.898438 15.523438 18.226562 14.851562 17.398438 14.851562 Z M 21.800781 14.851562 C 20.972656 14.851562 20.300781 15.523438 20.300781 16.351562 C 20.300781 17.179688 20.972656 17.851562 21.800781 17.851562 C 22.628906 17.851562 23.300781 17.179688 23.300781 16.351562 C 23.300781 15.523438 22.628906 14.851562 21.800781 14.851562 Z M 55 22.300781 L 8.898438 22.300781 C 8.050781 22.300781 7.398438 21.648438 7.398438 20.800781 C 7.398438 19.949219 8.050781 19.300781 8.898438 19.300781 L 55 19.300781 C 55.851562 19.300781 56.5 19.949219 56.5 20.800781 C 56.5 21.648438 55.851562 22.300781 55 22.300781 Z M 55 22.300781 "/>
</g>
</svg>
